<svg xmlns="http://www.w3.org/2000/svg" viewBox="0 0 360 360" role="img" aria-labelledby="title"><title id="title">Legacy Seals — Patron — Living Standard</title><defs><linearGradient id="b-metal" x1="0" y1="0" x2="1" y2="1"><stop stop-color="#c9edce"/><stop offset=".35" stop-color="#fff4dc"/><stop offset=".6" stop-color="#739f90"/><stop offset=".83" stop-color="#c9edce"/></linearGradient><linearGradient id="b-field" x2="0" y2="1"><stop stop-color="#3a3024"/><stop offset="1" stop-color="#0c1310"/></linearGradient></defs><g transform="translate(180 180)"><path d="M-98 -100 Q0 -129 98 -100 V65 L59 54 L0 113 L-59 54 L-98 65 Z" fill="url(#b-field)" stroke="url(#b-metal)" stroke-width="2.5" stroke-linecap="round" stroke-linejoin="round" /><circle cx="0" cy="0" r="94" fill="none" stroke="url(#b-metal)" stroke-width="0.9"/><g transform="rotate(0.0)"><path d="M0 -88 V-91" fill="none" stroke="url(#b-metal)" stroke-width="1" stroke-linecap="round" stroke-linejoin="round" /></g><g transform="rotate(22.5)"><path d="M0 -88 V-91" fill="none" stroke="url(#b-metal)" stroke-width="1" stroke-linecap="round" stroke-linejoin="round" /></g><g transform="rotate(45.0)"><path d="M0 -88 V-91" fill="none" stroke="url(#b-metal)" stroke-width="1" stroke-linecap="round" stroke-linejoin="round" /></g><g transform="rotate(67.5)"><path d="M0 -88 V-91" fill="none" stroke="url(#b-metal)" stroke-width="1" stroke-linecap="round" stroke-linejoin="round" /></g><g transform="rotate(90.0)"><path d="M0 -88 V-91" fill="none" stroke="url(#b-metal)" stroke-width="1" stroke-linecap="round" stroke-linejoin="round" /></g><g transform="rotate(112.5)"><path d="M0 -88 V-91" fill="none" stroke="url(#b-metal)" stroke-width="1" stroke-linecap="round" stroke-linejoin="round" /></g><g transform="rotate(135.0)"><path d="M0 -88 V-91" fill="none" stroke="url(#b-metal)" stroke-width="1" stroke-linecap="round" stroke-linejoin="round" /></g><g transform="rotate(157.5)"><path d="M0 -88 V-91" fill="none" stroke="url(#b-metal)" stroke-width="1" stroke-linecap="round" stroke-linejoin="round" /></g><g transform="rotate(180.0)"><path d="M0 -88 V-91" fill="none" stroke="url(#b-metal)" stroke-width="1" stroke-linecap="round" stroke-linejoin="round" /></g><g transform="rotate(202.5)"><path d="M0 -88 V-91" fill="none" stroke="url(#b-metal)" stroke-width="1" stroke-linecap="round" stroke-linejoin="round" /></g><g transform="rotate(225.0)"><path d="M0 -88 V-91" fill="none" stroke="url(#b-metal)" stroke-width="1" stroke-linecap="round" stroke-linejoin="round" /></g><g transform="rotate(247.5)"><path d="M0 -88 V-91" fill="none" stroke="url(#b-metal)" stroke-width="1" stroke-linecap="round" stroke-linejoin="round" /></g><g transform="rotate(270.0)"><path d="M0 -88 V-91" fill="none" stroke="url(#b-metal)" stroke-width="1" stroke-linecap="round" stroke-linejoin="round" /></g><g transform="rotate(292.5)"><path d="M0 -88 V-91" fill="none" stroke="url(#b-metal)" stroke-width="1" stroke-linecap="round" stroke-linejoin="round" /></g><g transform="rotate(315.0)"><path d="M0 -88 V-91" fill="none" stroke="url(#b-metal)" stroke-width="1" stroke-linecap="round" stroke-linejoin="round" /></g><g transform="rotate(337.5)"><path d="M0 -88 V-91" fill="none" stroke="url(#b-metal)" stroke-width="1" stroke-linecap="round" stroke-linejoin="round" /></g><path d="M-23 -99 L0 -111 L23 -99" fill="none" stroke="url(#b-metal)" stroke-width="3" stroke-linecap="round" stroke-linejoin="round" /><g transform="translate(-110 0)"><polygon points="0.00,-7.00 1.48,-1.48 7.00,0.00 1.48,1.48 0.00,7.00 -1.48,1.48 -7.00,0.00 -1.48,-1.48" fill="url(#b-metal)"/></g><g transform="translate(110 0)"><polygon points="0.00,-7.00 1.48,-1.48 7.00,0.00 1.48,1.48 0.00,7.00 -1.48,1.48 -7.00,0.00 -1.48,-1.48" fill="url(#b-metal)"/></g><path d="M-75 -105 Q0 -129 75 -105" fill="none" stroke="url(#b-metal)" stroke-width="5" stroke-linecap="round" stroke-linejoin="round" /><path d="M-15 111 L0 128 L15 111" fill="none" stroke="url(#b-metal)" stroke-width="3" stroke-linecap="round" stroke-linejoin="round" /><g color="#e8cc9c" transform="scale(0.87)"><path d="M0 -57 Q-43 -10 -27 22 Q-11 47 0 60 Q11 47 27 22 Q43 -10 0 -57 Z" fill="none" stroke="currentColor" stroke-width="3" stroke-linecap="round" stroke-linejoin="round" /><path d="M0 -40 V45 M0 9 L-20 -10 M0 27 L20 4" fill="none" stroke="currentColor" stroke-width="4" stroke-linecap="round" stroke-linejoin="round" /><circle cx="0" cy="0" r="63" fill="none" stroke="currentColor" stroke-width="1.5"/><path d="M-15 -56 L0 -72 L15 -56" fill="none" stroke="currentColor" stroke-width="3" stroke-linecap="round" stroke-linejoin="round" /></g></g></svg>