<svg xmlns="http://www.w3.org/2000/svg" viewBox="0 0 360 360" role="img" aria-labelledby="title"><title id="title">Celestial Navigation — Navigator — Patron Order</title><defs><linearGradient id="b-metal" x1="0" y1="0" x2="1" y2="1"><stop stop-color="#bcd3e9"/><stop offset=".35" stop-color="#fff4dc"/><stop offset=".6" stop-color="#947347"/><stop offset=".83" stop-color="#bcd3e9"/></linearGradient><linearGradient id="b-field" x2="0" y2="1"><stop stop-color="#212d40"/><stop offset="1" stop-color="#0c1310"/></linearGradient></defs><g transform="translate(180 180)"><path d="M0 -123 L24 -97 L86 -86 L97 -24 L123 0 L97 24 L86 86 L24 97 L0 123 L-24 97 L-86 86 L-97 24 L-123 0 L-97 -24 L-86 -86 L-24 -97 Z" fill="url(#b-field)" stroke="url(#b-metal)" stroke-width="2.5" stroke-linecap="round" stroke-linejoin="round" /><circle cx="0" cy="0" r="94" fill="none" stroke="url(#b-metal)" stroke-width="0.9"/><g transform="rotate(0.0)"><path d="M0 -88 V-91" fill="none" stroke="url(#b-metal)" stroke-width="1" stroke-linecap="round" stroke-linejoin="round" /></g><g transform="rotate(30.0)"><path d="M0 -88 V-91" fill="none" stroke="url(#b-metal)" stroke-width="1" stroke-linecap="round" stroke-linejoin="round" /></g><g transform="rotate(60.0)"><path d="M0 -88 V-91" fill="none" stroke="url(#b-metal)" stroke-width="1" stroke-linecap="round" stroke-linejoin="round" /></g><g transform="rotate(90.0)"><path d="M0 -88 V-91" fill="none" stroke="url(#b-metal)" stroke-width="1" stroke-linecap="round" stroke-linejoin="round" /></g><g transform="rotate(120.0)"><path d="M0 -88 V-91" fill="none" stroke="url(#b-metal)" stroke-width="1" stroke-linecap="round" stroke-linejoin="round" /></g><g transform="rotate(150.0)"><path d="M0 -88 V-91" fill="none" stroke="url(#b-metal)" stroke-width="1" stroke-linecap="round" stroke-linejoin="round" /></g><g transform="rotate(180.0)"><path d="M0 -88 V-91" fill="none" stroke="url(#b-metal)" stroke-width="1" stroke-linecap="round" stroke-linejoin="round" /></g><g transform="rotate(210.0)"><path d="M0 -88 V-91" fill="none" stroke="url(#b-metal)" stroke-width="1" stroke-linecap="round" stroke-linejoin="round" /></g><g transform="rotate(240.0)"><path d="M0 -88 V-91" fill="none" stroke="url(#b-metal)" stroke-width="1" stroke-linecap="round" stroke-linejoin="round" /></g><g transform="rotate(270.0)"><path d="M0 -88 V-91" fill="none" stroke="url(#b-metal)" stroke-width="1" stroke-linecap="round" stroke-linejoin="round" /></g><g transform="rotate(300.0)"><path d="M0 -88 V-91" fill="none" stroke="url(#b-metal)" stroke-width="1" stroke-linecap="round" stroke-linejoin="round" /></g><g transform="rotate(330.0)"><path d="M0 -88 V-91" fill="none" stroke="url(#b-metal)" stroke-width="1" stroke-linecap="round" stroke-linejoin="round" /></g><path d="M-23 -99 L0 -111 L23 -99" fill="none" stroke="url(#b-metal)" stroke-width="3" stroke-linecap="round" stroke-linejoin="round" /><circle cx="0" cy="104" r="4" fill="url(#b-metal)" stroke="none" stroke-width="2"/><g color="#bcd3e9" transform="scale(0.87)"><polygon points="0.00,-61.00 10.35,-10.35 61.00,0.00 10.35,10.35 0.00,61.00 -10.35,10.35 -61.00,0.00 -10.35,-10.35" fill="currentColor"/><circle cx="0" cy="0" r="30" fill="none" stroke="currentColor" stroke-width="1.6"/><g transform="rotate(45)"><polygon points="0.00,-46.00 4.88,-4.88 46.00,0.00 4.88,4.88 0.00,46.00 -4.88,4.88 -46.00,0.00 -4.88,-4.88" fill="currentColor"/></g></g></g></svg>