<svg xmlns="http://www.w3.org/2000/svg" viewBox="0 0 360 360" role="img" aria-labelledby="title"><title id="title">Maritime Orders — Patron — Patron Order</title><defs><linearGradient id="b-metal" x1="0" y1="0" x2="1" y2="1"><stop stop-color="#eed29b"/><stop offset=".35" stop-color="#fff4dc"/><stop offset=".6" stop-color="#947347"/><stop offset=".83" stop-color="#eed29b"/></linearGradient><linearGradient id="b-field" x2="0" y2="1"><stop stop-color="#34302a"/><stop offset="1" stop-color="#0c1310"/></linearGradient></defs><g transform="translate(180 180)"><path d="M-72 -92 H72 L105 -42 V42 L72 92 H-72 L-105 42 V-42 Z" fill="url(#b-field)" stroke="url(#b-metal)" stroke-width="3" stroke-linecap="round" stroke-linejoin="round" /><circle cx="0" cy="0" r="94" fill="none" stroke="url(#b-metal)" stroke-width="0.9"/><g transform="rotate(0.0)"><path d="M0 -88 V-91" fill="none" stroke="url(#b-metal)" stroke-width="1" stroke-linecap="round" stroke-linejoin="round" /></g><g transform="rotate(22.5)"><path d="M0 -88 V-91" fill="none" stroke="url(#b-metal)" stroke-width="1" stroke-linecap="round" stroke-linejoin="round" /></g><g transform="rotate(45.0)"><path d="M0 -88 V-91" fill="none" stroke="url(#b-metal)" stroke-width="1" stroke-linecap="round" stroke-linejoin="round" /></g><g transform="rotate(67.5)"><path d="M0 -88 V-91" fill="none" stroke="url(#b-metal)" stroke-width="1" stroke-linecap="round" stroke-linejoin="round" /></g><g transform="rotate(90.0)"><path d="M0 -88 V-91" fill="none" stroke="url(#b-metal)" stroke-width="1" stroke-linecap="round" stroke-linejoin="round" /></g><g transform="rotate(112.5)"><path d="M0 -88 V-91" fill="none" stroke="url(#b-metal)" stroke-width="1" stroke-linecap="round" stroke-linejoin="round" /></g><g transform="rotate(135.0)"><path d="M0 -88 V-91" fill="none" stroke="url(#b-metal)" stroke-width="1" stroke-linecap="round" stroke-linejoin="round" /></g><g transform="rotate(157.5)"><path d="M0 -88 V-91" fill="none" stroke="url(#b-metal)" stroke-width="1" stroke-linecap="round" stroke-linejoin="round" /></g><g transform="rotate(180.0)"><path d="M0 -88 V-91" fill="none" stroke="url(#b-metal)" stroke-width="1" stroke-linecap="round" stroke-linejoin="round" /></g><g transform="rotate(202.5)"><path d="M0 -88 V-91" fill="none" stroke="url(#b-metal)" stroke-width="1" stroke-linecap="round" stroke-linejoin="round" /></g><g transform="rotate(225.0)"><path d="M0 -88 V-91" fill="none" stroke="url(#b-metal)" stroke-width="1" stroke-linecap="round" stroke-linejoin="round" /></g><g transform="rotate(247.5)"><path d="M0 -88 V-91" fill="none" stroke="url(#b-metal)" stroke-width="1" stroke-linecap="round" stroke-linejoin="round" /></g><g transform="rotate(270.0)"><path d="M0 -88 V-91" fill="none" stroke="url(#b-metal)" stroke-width="1" stroke-linecap="round" stroke-linejoin="round" /></g><g transform="rotate(292.5)"><path d="M0 -88 V-91" fill="none" stroke="url(#b-metal)" stroke-width="1" stroke-linecap="round" stroke-linejoin="round" /></g><g transform="rotate(315.0)"><path d="M0 -88 V-91" fill="none" stroke="url(#b-metal)" stroke-width="1" stroke-linecap="round" stroke-linejoin="round" /></g><g transform="rotate(337.5)"><path d="M0 -88 V-91" fill="none" stroke="url(#b-metal)" stroke-width="1" stroke-linecap="round" stroke-linejoin="round" /></g><path d="M-23 -99 L0 -111 L23 -99" fill="none" stroke="url(#b-metal)" stroke-width="3" stroke-linecap="round" stroke-linejoin="round" /><g transform="translate(-110 0)"><polygon points="0.00,-7.00 1.48,-1.48 7.00,0.00 1.48,1.48 0.00,7.00 -1.48,1.48 -7.00,0.00 -1.48,-1.48" fill="url(#b-metal)"/></g><g transform="translate(110 0)"><polygon points="0.00,-7.00 1.48,-1.48 7.00,0.00 1.48,1.48 0.00,7.00 -1.48,1.48 -7.00,0.00 -1.48,-1.48" fill="url(#b-metal)"/></g><circle cx="0" cy="104" r="4" fill="url(#b-metal)" stroke="none" stroke-width="2"/><g color="#e4c58d" transform="scale(0.87)"><path d="M-61 4 C-77 -26 -43 -58 -17 -31 L27 24 C53 54 80 21 61 -5 C43 -33 22 -16 0 11 L-23 36 C-47 63 -78 29 -61 4 Z" fill="none" stroke="currentColor" stroke-width="7" stroke-linecap="round" stroke-linejoin="round" /><path d="M-12 -23 L17 14" fill="none" stroke="#15211b" stroke-width="11" stroke-linecap="round" stroke-linejoin="round" /><path d="M-12 -23 L17 14" fill="none" stroke="currentColor" stroke-width="7" stroke-linecap="round" stroke-linejoin="round" /><path d="M-32 -22 L-52 -55 M33 20 L53 53" fill="none" stroke="currentColor" stroke-width="5" stroke-linecap="round" stroke-linejoin="round" /></g></g></svg>