<svg xmlns="http://www.w3.org/2000/svg" viewBox="0 0 360 360" role="img" aria-labelledby="title"><title id="title">Chartmaker — Legacy — Living Standard</title><defs><linearGradient id="b-metal" x1="0" y1="0" x2="1" y2="1"><stop stop-color="#c9edce"/><stop offset=".35" stop-color="#fff4dc"/><stop offset=".6" stop-color="#739f90"/><stop offset=".83" stop-color="#c9edce"/></linearGradient><linearGradient id="b-field" x2="0" y2="1"><stop stop-color="#30372c"/><stop offset="1" stop-color="#0c1310"/></linearGradient></defs><g transform="translate(180 180)"><path d="M0 -121 L34 -88 L85 -85 L88 -34 L121 0 L88 34 L85 85 L34 88 L0 121 L-34 88 L-85 85 L-88 34 L-121 0 L-88 -34 L-85 -85 L-34 -88 Z" fill="url(#b-field)" stroke="url(#b-metal)" stroke-width="2.5" stroke-linecap="round" stroke-linejoin="round" /><path d="M-70 99 V127 L-32 114 L0 140 L32 114 L70 127 V99" fill="url(#b-field)" stroke="url(#b-metal)" stroke-width="2.5" stroke-linecap="round" stroke-linejoin="round" /><g transform="scale(1.09)"><path d="M0 -121 L34 -88 L85 -85 L88 -34 L121 0 L88 34 L85 85 L34 88 L0 121 L-34 88 L-85 85 L-88 34 L-121 0 L-88 -34 L-85 -85 L-34 -88 Z" fill="none" stroke="url(#b-metal)" stroke-width="1.4" stroke-linecap="round" stroke-linejoin="round" /></g><circle cx="0" cy="0" r="94" fill="none" stroke="url(#b-metal)" stroke-width="0.9"/><g transform="rotate(0.0)"><path d="M0 -88 V-91" fill="none" stroke="url(#b-metal)" stroke-width="1" stroke-linecap="round" stroke-linejoin="round" /></g><g transform="rotate(9.0)"><path d="M0 -88 V-91" fill="none" stroke="url(#b-metal)" stroke-width="1" stroke-linecap="round" stroke-linejoin="round" /></g><g transform="rotate(18.0)"><path d="M0 -88 V-91" fill="none" stroke="url(#b-metal)" stroke-width="1" stroke-linecap="round" stroke-linejoin="round" /></g><g transform="rotate(27.0)"><path d="M0 -88 V-91" fill="none" stroke="url(#b-metal)" stroke-width="1" stroke-linecap="round" stroke-linejoin="round" /></g><g transform="rotate(36.0)"><path d="M0 -88 V-91" fill="none" stroke="url(#b-metal)" stroke-width="1" stroke-linecap="round" stroke-linejoin="round" /></g><g transform="rotate(45.0)"><path d="M0 -88 V-91" fill="none" stroke="url(#b-metal)" stroke-width="1" stroke-linecap="round" stroke-linejoin="round" /></g><g transform="rotate(54.0)"><path d="M0 -88 V-91" fill="none" stroke="url(#b-metal)" stroke-width="1" stroke-linecap="round" stroke-linejoin="round" /></g><g transform="rotate(63.0)"><path d="M0 -88 V-91" fill="none" stroke="url(#b-metal)" stroke-width="1" stroke-linecap="round" stroke-linejoin="round" /></g><g transform="rotate(72.0)"><path d="M0 -88 V-91" fill="none" stroke="url(#b-metal)" stroke-width="1" stroke-linecap="round" stroke-linejoin="round" /></g><g transform="rotate(81.0)"><path d="M0 -88 V-91" fill="none" stroke="url(#b-metal)" stroke-width="1" stroke-linecap="round" stroke-linejoin="round" /></g><g transform="rotate(90.0)"><path d="M0 -88 V-91" fill="none" stroke="url(#b-metal)" stroke-width="1" stroke-linecap="round" stroke-linejoin="round" /></g><g transform="rotate(99.0)"><path d="M0 -88 V-91" fill="none" stroke="url(#b-metal)" stroke-width="1" stroke-linecap="round" stroke-linejoin="round" /></g><g transform="rotate(108.0)"><path d="M0 -88 V-91" fill="none" stroke="url(#b-metal)" stroke-width="1" stroke-linecap="round" stroke-linejoin="round" /></g><g transform="rotate(117.0)"><path d="M0 -88 V-91" fill="none" stroke="url(#b-metal)" stroke-width="1" stroke-linecap="round" stroke-linejoin="round" /></g><g transform="rotate(126.0)"><path d="M0 -88 V-91" fill="none" stroke="url(#b-metal)" stroke-width="1" stroke-linecap="round" stroke-linejoin="round" /></g><g transform="rotate(135.0)"><path d="M0 -88 V-91" fill="none" stroke="url(#b-metal)" stroke-width="1" stroke-linecap="round" stroke-linejoin="round" /></g><g transform="rotate(144.0)"><path d="M0 -88 V-91" fill="none" stroke="url(#b-metal)" stroke-width="1" stroke-linecap="round" stroke-linejoin="round" /></g><g transform="rotate(153.0)"><path d="M0 -88 V-91" fill="none" stroke="url(#b-metal)" stroke-width="1" stroke-linecap="round" stroke-linejoin="round" /></g><g transform="rotate(162.0)"><path d="M0 -88 V-91" fill="none" stroke="url(#b-metal)" stroke-width="1" stroke-linecap="round" stroke-linejoin="round" /></g><g transform="rotate(171.0)"><path d="M0 -88 V-91" fill="none" stroke="url(#b-metal)" stroke-width="1" stroke-linecap="round" stroke-linejoin="round" /></g><g transform="rotate(180.0)"><path d="M0 -88 V-91" fill="none" stroke="url(#b-metal)" stroke-width="1" stroke-linecap="round" stroke-linejoin="round" /></g><g transform="rotate(189.0)"><path d="M0 -88 V-91" fill="none" stroke="url(#b-metal)" stroke-width="1" stroke-linecap="round" stroke-linejoin="round" /></g><g transform="rotate(198.0)"><path d="M0 -88 V-91" fill="none" stroke="url(#b-metal)" stroke-width="1" stroke-linecap="round" stroke-linejoin="round" /></g><g transform="rotate(207.0)"><path d="M0 -88 V-91" fill="none" stroke="url(#b-metal)" stroke-width="1" stroke-linecap="round" stroke-linejoin="round" /></g><g transform="rotate(216.0)"><path d="M0 -88 V-91" fill="none" stroke="url(#b-metal)" stroke-width="1" stroke-linecap="round" stroke-linejoin="round" /></g><g transform="rotate(225.0)"><path d="M0 -88 V-91" fill="none" stroke="url(#b-metal)" stroke-width="1" stroke-linecap="round" stroke-linejoin="round" /></g><g transform="rotate(234.0)"><path d="M0 -88 V-91" fill="none" stroke="url(#b-metal)" stroke-width="1" stroke-linecap="round" stroke-linejoin="round" /></g><g transform="rotate(243.0)"><path d="M0 -88 V-91" fill="none" stroke="url(#b-metal)" stroke-width="1" stroke-linecap="round" stroke-linejoin="round" /></g><g transform="rotate(252.0)"><path d="M0 -88 V-91" fill="none" stroke="url(#b-metal)" stroke-width="1" stroke-linecap="round" stroke-linejoin="round" /></g><g transform="rotate(261.0)"><path d="M0 -88 V-91" fill="none" stroke="url(#b-metal)" stroke-width="1" stroke-linecap="round" stroke-linejoin="round" /></g><g transform="rotate(270.0)"><path d="M0 -88 V-91" fill="none" stroke="url(#b-metal)" stroke-width="1" stroke-linecap="round" stroke-linejoin="round" /></g><g transform="rotate(279.0)"><path d="M0 -88 V-91" fill="none" stroke="url(#b-metal)" stroke-width="1" stroke-linecap="round" stroke-linejoin="round" /></g><g transform="rotate(288.0)"><path d="M0 -88 V-91" fill="none" stroke="url(#b-metal)" stroke-width="1" stroke-linecap="round" stroke-linejoin="round" /></g><g transform="rotate(297.0)"><path d="M0 -88 V-91" fill="none" stroke="url(#b-metal)" stroke-width="1" stroke-linecap="round" stroke-linejoin="round" /></g><g transform="rotate(306.0)"><path d="M0 -88 V-91" fill="none" stroke="url(#b-metal)" stroke-width="1" stroke-linecap="round" stroke-linejoin="round" /></g><g transform="rotate(315.0)"><path d="M0 -88 V-91" fill="none" stroke="url(#b-metal)" stroke-width="1" stroke-linecap="round" stroke-linejoin="round" /></g><g transform="rotate(324.0)"><path d="M0 -88 V-91" fill="none" stroke="url(#b-metal)" stroke-width="1" stroke-linecap="round" stroke-linejoin="round" /></g><g transform="rotate(333.0)"><path d="M0 -88 V-91" fill="none" stroke="url(#b-metal)" stroke-width="1" stroke-linecap="round" stroke-linejoin="round" /></g><g transform="rotate(342.0)"><path d="M0 -88 V-91" fill="none" stroke="url(#b-metal)" stroke-width="1" stroke-linecap="round" stroke-linejoin="round" /></g><g transform="rotate(351.0)"><path d="M0 -88 V-91" fill="none" stroke="url(#b-metal)" stroke-width="1" stroke-linecap="round" stroke-linejoin="round" /></g><path d="M-23 -99 L0 -111 L23 -99" fill="none" stroke="url(#b-metal)" stroke-width="3" stroke-linecap="round" stroke-linejoin="round" /><g transform="translate(-110 0)"><polygon points="0.00,-10.00 2.12,-2.12 10.00,0.00 2.12,2.12 0.00,10.00 -2.12,2.12 -10.00,0.00 -2.12,-2.12" fill="url(#b-metal)"/></g><g transform="translate(110 0)"><polygon points="0.00,-10.00 2.12,-2.12 10.00,0.00 2.12,2.12 0.00,10.00 -2.12,2.12 -10.00,0.00 -2.12,-2.12" fill="url(#b-metal)"/></g><g transform="rotate(0)"><path d="M0 -130 V-165" fill="none" stroke="url(#b-metal)" stroke-width="3" stroke-linecap="round" stroke-linejoin="round" /></g><g transform="rotate(45)"><path d="M0 -130 V-165" fill="none" stroke="url(#b-metal)" stroke-width="3" stroke-linecap="round" stroke-linejoin="round" /></g><g transform="rotate(90)"><path d="M0 -130 V-165" fill="none" stroke="url(#b-metal)" stroke-width="3" stroke-linecap="round" stroke-linejoin="round" /></g><g transform="rotate(135)"><path d="M0 -130 V-165" fill="none" stroke="url(#b-metal)" stroke-width="3" stroke-linecap="round" stroke-linejoin="round" /></g><g transform="rotate(180)"><path d="M0 -130 V-165" fill="none" stroke="url(#b-metal)" stroke-width="3" stroke-linecap="round" stroke-linejoin="round" /></g><g transform="rotate(225)"><path d="M0 -130 V-165" fill="none" stroke="url(#b-metal)" stroke-width="3" stroke-linecap="round" stroke-linejoin="round" /></g><g transform="rotate(270)"><path d="M0 -130 V-165" fill="none" stroke="url(#b-metal)" stroke-width="3" stroke-linecap="round" stroke-linejoin="round" /></g><g transform="rotate(315)"><path d="M0 -130 V-165" fill="none" stroke="url(#b-metal)" stroke-width="3" stroke-linecap="round" stroke-linejoin="round" /></g><circle cx="0" cy="0" r="146" fill="none" stroke="url(#b-metal)" stroke-width="1"/><g transform="rotate(45)"><polygon points="0.00,-166.00 1.91,-158.91 9.00,-157.00 1.91,-155.09 0.00,-148.00 -1.91,-155.09 -9.00,-157.00 -1.91,-158.91" fill="url(#b-metal)"/></g><g transform="rotate(135)"><polygon points="0.00,-166.00 1.91,-158.91 9.00,-157.00 1.91,-155.09 0.00,-148.00 -1.91,-155.09 -9.00,-157.00 -1.91,-158.91" fill="url(#b-metal)"/></g><g transform="rotate(225)"><polygon points="0.00,-166.00 1.91,-158.91 9.00,-157.00 1.91,-155.09 0.00,-148.00 -1.91,-155.09 -9.00,-157.00 -1.91,-158.91" fill="url(#b-metal)"/></g><g transform="rotate(315)"><polygon points="0.00,-166.00 1.91,-158.91 9.00,-157.00 1.91,-155.09 0.00,-148.00 -1.91,-155.09 -9.00,-157.00 -1.91,-158.91" fill="url(#b-metal)"/></g><path d="M-75 -105 Q0 -129 75 -105" fill="none" stroke="url(#b-metal)" stroke-width="5" stroke-linecap="round" stroke-linejoin="round" /><path d="M-15 111 L0 128 L15 111" fill="none" stroke="url(#b-metal)" stroke-width="3" stroke-linecap="round" stroke-linejoin="round" /><g color="#d9d6ad" transform="scale(0.87)"><path d="M-17 23 L0 -60 L17 -23 L0 60 Z" fill="currentColor" stroke="none" stroke-width="2" stroke-linecap="round" stroke-linejoin="round" /><circle cx="0" cy="0" r="44" fill="none" stroke="currentColor" stroke-width="2"/><circle cx="0" cy="0" r="6" fill="#090a08" stroke="currentColor" stroke-width="2"/><path d="M-61 0 H-49 M49 0 H61" fill="none" stroke="currentColor" stroke-width="4" stroke-linecap="round" stroke-linejoin="round" /><circle cx="0" cy="0" r="65" fill="none" stroke="currentColor" stroke-width="1.5"/><path d="M-47 -47 L-38 -38 M47 -47 L38 -38 M-47 47 L-38 38 M47 47 L38 38" fill="none" stroke="currentColor" stroke-width="3" stroke-linecap="round" stroke-linejoin="round" /><path d="M-77 0 H-67 M77 0 H67 M0 -77 V-67 M0 77 V67" fill="none" stroke="currentColor" stroke-width="3" stroke-linecap="round" stroke-linejoin="round" /><circle cx="0" cy="0" r="81" fill="none" stroke="currentColor" stroke-width="1"/><polygon points="-57.00,-64.00 -55.52,-58.48 -50.00,-57.00 -55.52,-55.52 -57.00,-50.00 -58.48,-55.52 -64.00,-57.00 -58.48,-58.48" fill="currentColor"/><polygon points="57.00,50.00 58.48,55.52 64.00,57.00 58.48,58.48 57.00,64.00 55.52,58.48 50.00,57.00 55.52,55.52" fill="currentColor"/><polygon points="-57.00,50.00 -55.52,55.52 -50.00,57.00 -55.52,58.48 -57.00,64.00 -58.48,58.48 -64.00,57.00 -58.48,55.52" fill="currentColor"/><polygon points="57.00,-64.00 58.48,-58.48 64.00,-57.00 58.48,-55.52 57.00,-50.00 55.52,-55.52 50.00,-57.00 55.52,-58.48" fill="currentColor"/></g></g></svg>