<svg xmlns="http://www.w3.org/2000/svg" viewBox="0 0 1200 800" role="img" aria-labelledby="title">
<title id="title">Sample Legacy Patron Order certificate</title>
<rect width="1200" height="800" fill="#090a08"/><rect x="28" y="28" width="1144" height="744" rx="3" fill="none" stroke="#726a4f"/>
<path d="M48 92V48H92 M1108 48H1152V92 M48 708V752H92 M1108 752H1152V708" fill="none" stroke="#e4cf9f" stroke-width="2"/>
<g font-family="Arial, sans-serif" text-anchor="middle">
<text x="600" y="96" fill="#dfe7d5" font-size="18" letter-spacing="6">KINOSAIL PLAYER</text>
<g transform="translate(453 114) scale(.82)"><defs><linearGradient id="certificate-metal" x1="0" y1="0" x2="1" y2="1"><stop stop-color="#eed29b"/><stop offset=".35" stop-color="#fff4dc"/><stop offset=".6" stop-color="#947347"/><stop offset=".83" stop-color="#eed29b"/></linearGradient><linearGradient id="certificate-field" x2="0" y2="1"><stop stop-color="#402d2a"/><stop offset="1" stop-color="#0c1310"/></linearGradient></defs><g transform="translate(180 180)"><path d="M-94 -108 H94 V-90 H110 V94 H94 V110 H-94 V94 H-110 V-90 H-94 Z" fill="url(#certificate-field)" stroke="url(#certificate-metal)" stroke-width="2.5" stroke-linecap="round" stroke-linejoin="round" /><g transform="scale(1.09)"><path d="M-94 -108 H94 V-90 H110 V94 H94 V110 H-94 V94 H-110 V-90 H-94 Z" fill="none" stroke="url(#certificate-metal)" stroke-width="1.4" stroke-linecap="round" stroke-linejoin="round" /></g><circle cx="0" cy="0" r="94" fill="none" stroke="url(#certificate-metal)" stroke-width="0.9"/><g transform="rotate(0.0)"><path d="M0 -88 V-91" fill="none" stroke="url(#certificate-metal)" stroke-width="1" stroke-linecap="round" stroke-linejoin="round" /></g><g transform="rotate(9.0)"><path d="M0 -88 V-91" fill="none" stroke="url(#certificate-metal)" stroke-width="1" stroke-linecap="round" stroke-linejoin="round" /></g><g transform="rotate(18.0)"><path d="M0 -88 V-91" fill="none" stroke="url(#certificate-metal)" stroke-width="1" stroke-linecap="round" stroke-linejoin="round" /></g><g transform="rotate(27.0)"><path d="M0 -88 V-91" fill="none" stroke="url(#certificate-metal)" stroke-width="1" stroke-linecap="round" stroke-linejoin="round" /></g><g transform="rotate(36.0)"><path d="M0 -88 V-91" fill="none" stroke="url(#certificate-metal)" stroke-width="1" stroke-linecap="round" stroke-linejoin="round" /></g><g transform="rotate(45.0)"><path d="M0 -88 V-91" fill="none" stroke="url(#certificate-metal)" stroke-width="1" stroke-linecap="round" stroke-linejoin="round" /></g><g transform="rotate(54.0)"><path d="M0 -88 V-91" fill="none" stroke="url(#certificate-metal)" stroke-width="1" stroke-linecap="round" stroke-linejoin="round" /></g><g transform="rotate(63.0)"><path d="M0 -88 V-91" fill="none" stroke="url(#certificate-metal)" stroke-width="1" stroke-linecap="round" stroke-linejoin="round" /></g><g transform="rotate(72.0)"><path d="M0 -88 V-91" fill="none" stroke="url(#certificate-metal)" stroke-width="1" stroke-linecap="round" stroke-linejoin="round" /></g><g transform="rotate(81.0)"><path d="M0 -88 V-91" fill="none" stroke="url(#certificate-metal)" stroke-width="1" stroke-linecap="round" stroke-linejoin="round" /></g><g transform="rotate(90.0)"><path d="M0 -88 V-91" fill="none" stroke="url(#certificate-metal)" stroke-width="1" stroke-linecap="round" stroke-linejoin="round" /></g><g transform="rotate(99.0)"><path d="M0 -88 V-91" fill="none" stroke="url(#certificate-metal)" stroke-width="1" stroke-linecap="round" stroke-linejoin="round" /></g><g transform="rotate(108.0)"><path d="M0 -88 V-91" fill="none" stroke="url(#certificate-metal)" stroke-width="1" stroke-linecap="round" stroke-linejoin="round" /></g><g transform="rotate(117.0)"><path d="M0 -88 V-91" fill="none" stroke="url(#certificate-metal)" stroke-width="1" stroke-linecap="round" stroke-linejoin="round" /></g><g transform="rotate(126.0)"><path d="M0 -88 V-91" fill="none" stroke="url(#certificate-metal)" stroke-width="1" stroke-linecap="round" stroke-linejoin="round" /></g><g transform="rotate(135.0)"><path d="M0 -88 V-91" fill="none" stroke="url(#certificate-metal)" stroke-width="1" stroke-linecap="round" stroke-linejoin="round" /></g><g transform="rotate(144.0)"><path d="M0 -88 V-91" fill="none" stroke="url(#certificate-metal)" stroke-width="1" stroke-linecap="round" stroke-linejoin="round" /></g><g transform="rotate(153.0)"><path d="M0 -88 V-91" fill="none" stroke="url(#certificate-metal)" stroke-width="1" stroke-linecap="round" stroke-linejoin="round" /></g><g transform="rotate(162.0)"><path d="M0 -88 V-91" fill="none" stroke="url(#certificate-metal)" stroke-width="1" stroke-linecap="round" stroke-linejoin="round" /></g><g transform="rotate(171.0)"><path d="M0 -88 V-91" fill="none" stroke="url(#certificate-metal)" stroke-width="1" stroke-linecap="round" stroke-linejoin="round" /></g><g transform="rotate(180.0)"><path d="M0 -88 V-91" fill="none" stroke="url(#certificate-metal)" stroke-width="1" stroke-linecap="round" stroke-linejoin="round" /></g><g transform="rotate(189.0)"><path d="M0 -88 V-91" fill="none" stroke="url(#certificate-metal)" stroke-width="1" stroke-linecap="round" stroke-linejoin="round" /></g><g transform="rotate(198.0)"><path d="M0 -88 V-91" fill="none" stroke="url(#certificate-metal)" stroke-width="1" stroke-linecap="round" stroke-linejoin="round" /></g><g transform="rotate(207.0)"><path d="M0 -88 V-91" fill="none" stroke="url(#certificate-metal)" stroke-width="1" stroke-linecap="round" stroke-linejoin="round" /></g><g transform="rotate(216.0)"><path d="M0 -88 V-91" fill="none" stroke="url(#certificate-metal)" stroke-width="1" stroke-linecap="round" stroke-linejoin="round" /></g><g transform="rotate(225.0)"><path d="M0 -88 V-91" fill="none" stroke="url(#certificate-metal)" stroke-width="1" stroke-linecap="round" stroke-linejoin="round" /></g><g transform="rotate(234.0)"><path d="M0 -88 V-91" fill="none" stroke="url(#certificate-metal)" stroke-width="1" stroke-linecap="round" stroke-linejoin="round" /></g><g transform="rotate(243.0)"><path d="M0 -88 V-91" fill="none" stroke="url(#certificate-metal)" stroke-width="1" stroke-linecap="round" stroke-linejoin="round" /></g><g transform="rotate(252.0)"><path d="M0 -88 V-91" fill="none" stroke="url(#certificate-metal)" stroke-width="1" stroke-linecap="round" stroke-linejoin="round" /></g><g transform="rotate(261.0)"><path d="M0 -88 V-91" fill="none" stroke="url(#certificate-metal)" stroke-width="1" stroke-linecap="round" stroke-linejoin="round" /></g><g transform="rotate(270.0)"><path d="M0 -88 V-91" fill="none" stroke="url(#certificate-metal)" stroke-width="1" stroke-linecap="round" stroke-linejoin="round" /></g><g transform="rotate(279.0)"><path d="M0 -88 V-91" fill="none" stroke="url(#certificate-metal)" stroke-width="1" stroke-linecap="round" stroke-linejoin="round" /></g><g transform="rotate(288.0)"><path d="M0 -88 V-91" fill="none" stroke="url(#certificate-metal)" stroke-width="1" stroke-linecap="round" stroke-linejoin="round" /></g><g transform="rotate(297.0)"><path d="M0 -88 V-91" fill="none" stroke="url(#certificate-metal)" stroke-width="1" stroke-linecap="round" stroke-linejoin="round" /></g><g transform="rotate(306.0)"><path d="M0 -88 V-91" fill="none" stroke="url(#certificate-metal)" stroke-width="1" stroke-linecap="round" stroke-linejoin="round" /></g><g transform="rotate(315.0)"><path d="M0 -88 V-91" fill="none" stroke="url(#certificate-metal)" stroke-width="1" stroke-linecap="round" stroke-linejoin="round" /></g><g transform="rotate(324.0)"><path d="M0 -88 V-91" fill="none" stroke="url(#certificate-metal)" stroke-width="1" stroke-linecap="round" stroke-linejoin="round" /></g><g transform="rotate(333.0)"><path d="M0 -88 V-91" fill="none" stroke="url(#certificate-metal)" stroke-width="1" stroke-linecap="round" stroke-linejoin="round" /></g><g transform="rotate(342.0)"><path d="M0 -88 V-91" fill="none" stroke="url(#certificate-metal)" stroke-width="1" stroke-linecap="round" stroke-linejoin="round" /></g><g transform="rotate(351.0)"><path d="M0 -88 V-91" fill="none" stroke="url(#certificate-metal)" stroke-width="1" stroke-linecap="round" stroke-linejoin="round" /></g><path d="M-23 -99 L0 -111 L23 -99" fill="none" stroke="url(#certificate-metal)" stroke-width="3" stroke-linecap="round" stroke-linejoin="round" /><g transform="translate(-110 0)"><polygon points="0.00,-10.00 2.12,-2.12 10.00,0.00 2.12,2.12 0.00,10.00 -2.12,2.12 -10.00,0.00 -2.12,-2.12" fill="url(#certificate-metal)"/></g><g transform="translate(110 0)"><polygon points="0.00,-10.00 2.12,-2.12 10.00,0.00 2.12,2.12 0.00,10.00 -2.12,2.12 -10.00,0.00 -2.12,-2.12" fill="url(#certificate-metal)"/></g><g transform="scale(-1 1)"><path d="M120 103 V-86 L139 -103 V114 H108" fill="none" stroke="url(#certificate-metal)" stroke-width="3" stroke-linecap="round" stroke-linejoin="round" /></g><g transform="scale(1 1)"><path d="M120 103 V-86 L139 -103 V114 H108" fill="none" stroke="url(#certificate-metal)" stroke-width="3" stroke-linecap="round" stroke-linejoin="round" /></g><path d="M-91 -122 L0 -158 L91 -122 M-88 137 H88" fill="none" stroke="url(#certificate-metal)" stroke-width="3" stroke-linecap="round" stroke-linejoin="round" /><path d="M-77 -134 L0 -175 L77 -134 M-77 150 H77 M-65 160 H65" fill="none" stroke="url(#certificate-metal)" stroke-width="2" stroke-linecap="round" stroke-linejoin="round" /><circle cx="0" cy="104" r="6" fill="url(#certificate-metal)" stroke="none" stroke-width="2"/><g color="#e4b6a2" transform="scale(0.87)"><path d="M-54 -37 H54 V37 H-54 Z" fill="none" stroke="currentColor" stroke-width="5" stroke-linecap="round" stroke-linejoin="round" /><path d="M-12 -22 L25 0 L-12 22 Z" fill="currentColor" stroke="none" stroke-width="2" stroke-linecap="round" stroke-linejoin="round" /><path d="M-62 47 H62" fill="none" stroke="currentColor" stroke-width="3" stroke-linecap="round" stroke-linejoin="round" /><path d="M-65 -49 H65 V47 M-65 -49 V47" fill="none" stroke="currentColor" stroke-width="2" stroke-linecap="round" stroke-linejoin="round" /><path d="M-75 -57 H75 M-75 -57 V56 M75 -57 V56" fill="none" stroke="currentColor" stroke-width="3" stroke-linecap="round" stroke-linejoin="round" /><path d="M-75 -65 L0 -88 L75 -65 M-49 -65 L0 -80 L49 -65" fill="none" stroke="currentColor" stroke-width="2" stroke-linecap="round" stroke-linejoin="round" /><path d="M-68 60 H68 M-58 69 H58" fill="none" stroke="currentColor" stroke-width="3" stroke-linecap="round" stroke-linejoin="round" /><polygon points="0.00,-76.00 1.91,-68.91 9.00,-67.00 1.91,-65.09 0.00,-58.00 -1.91,-65.09 -9.00,-67.00 -1.91,-68.91" fill="currentColor"/><polygon points="-40.00,58.00 -38.94,61.94 -35.00,63.00 -38.94,64.06 -40.00,68.00 -41.06,64.06 -45.00,63.00 -41.06,61.94" fill="currentColor"/><polygon points="40.00,58.00 41.06,61.94 45.00,63.00 41.06,64.06 40.00,68.00 38.94,64.06 35.00,63.00 38.94,61.94" fill="currentColor"/></g></g></g>
<text x="600" y="457" fill="#d8c59c" font-size="14" letter-spacing="4">PATRON ORDER</text>
<text x="600" y="524" fill="#f6f8ef" font-size="54">Legacy</text>
<text x="600" y="570" fill="#c0c7b6" font-size="18">With gratitude for helping Kinosail continue to grow.</text>
<text x="600" y="616" fill="#aeb6a2" font-size="14">Permanent recognition · Issued September 6, 2026</text>
<path d="M525 656H675" stroke="#726a4f"/>
<text x="600" y="693" fill="#c6cebb" font-size="16">Thank you for being part of the story.</text>
<text x="600" y="728" fill="#aeb6a2" font-size="11" letter-spacing="2">DESIGN SAMPLE · NOT PROOF OF PAYMENT</text>
</g></svg>