<svg xmlns="http://www.w3.org/2000/svg" viewBox="0 0 360 360" role="img" aria-labelledby="title"><title id="title">Harbor Architecture — Navigator — Living Standard</title><defs><linearGradient id="b-metal" x1="0" y1="0" x2="1" y2="1"><stop stop-color="#b9d4c9"/><stop offset=".35" stop-color="#fff4dc"/><stop offset=".6" stop-color="#739f90"/><stop offset=".83" stop-color="#b9d4c9"/></linearGradient><linearGradient id="b-field" x2="0" y2="1"><stop stop-color="#243a36"/><stop offset="1" stop-color="#0c1310"/></linearGradient></defs><g transform="translate(180 180)"><path d="M-104 111 V-20 A104 104 0 0 1 104 -20 V111 Z" fill="url(#b-field)" stroke="#b9d4c9" stroke-width="4" stroke-linecap="round" stroke-linejoin="round" /><path d="M-70 99 V127 L-32 114 L0 140 L32 114 L70 127 V99" fill="url(#b-field)" stroke="#b9d4c9" stroke-width="2.5" stroke-linecap="round" stroke-linejoin="round" /><circle cx="0" cy="0" r="94" fill="none" stroke="#b9d4c9" stroke-width="1.5"/><path d="M-23 -99 L0 -111 L23 -99" fill="none" stroke="#b9d4c9" stroke-width="3" stroke-linecap="round" stroke-linejoin="round" /><path d="M-75 -105 Q0 -129 75 -105" fill="none" stroke="#b9d4c9" stroke-width="5" stroke-linecap="round" stroke-linejoin="round" /><path d="M-15 111 L0 128 L15 111" fill="none" stroke="#b9d4c9" stroke-width="3" stroke-linecap="round" stroke-linejoin="round" /><g color="#b9d4c9" transform="scale(0.83)"><path d="M-35 51 V-15 A35 35 0 0 1 35 -15 V51 M-43 51 H43" fill="none" stroke="currentColor" stroke-width="6" stroke-linecap="round" stroke-linejoin="round" /><path d="M-19 46 V-12 A19 19 0 0 1 19 -12 V46" fill="none" stroke="currentColor" stroke-width="2" stroke-linecap="round" stroke-linejoin="round" /><path d="M-49 51 V-20 A49 49 0 0 1 49 -20 V51" fill="none" stroke="currentColor" stroke-width="2" stroke-linecap="round" stroke-linejoin="round" /></g></g></svg>